solid BatteryHolder
facet normal 0.0 0.0 -1.0
  outer loop
    vertex 45.49999999999999 18.200000000000006 3.913489646994863e-32
    vertex 0.0 0.0 3.913489646994863e-32
    vertex 0.0 18.200000000000006 3.913489646994863e-32
  endloop
endfacet
facet normal 0.0 0.0 -1.0
  outer loop
    vertex 0.0 0.0 3.913489646994863e-32
    vertex 45.49999999999999 18.200000000000006 3.913489646994863e-32
    vertex 45.49999999999999 0.0 3.913489646994863e-32
  endloop
endfacet
facet normal -1.0 0.0 0.0
  outer loop
    vertex 0.0 18.200000000000006 9.6
    vertex 0.0 14.600000000000007 1.3000000000000005
    vertex 0.0 14.600000000000007 9.6
  endloop
endfacet
facet normal -1.0 0.0 0.0
  outer loop
    vertex 0.0 3.5999999999999996 9.6
    vertex 0.0 0.0 3.913489646994863e-32
    vertex 0.0 0.0 9.6
  endloop
endfacet
facet normal -1.0 0.0 0.0
  outer loop
    vertex 0.0 0.0 3.913489646994863e-32
    vertex 0.0 3.5999999999999996 9.6
    vertex 0.0 3.5999999999999996 1.3000000000000005
  endloop
endfacet
facet normal -1.0 0.0 0.0
  outer loop
    vertex 0.0 0.0 3.913489646994863e-32
    vertex 0.0 3.5999999999999996 1.3000000000000005
    vertex 0.0 18.200000000000006 3.913489646994863e-32
  endloop
endfacet
facet normal -1.0 0.0 0.0
  outer loop
    vertex 0.0 18.200000000000006 3.913489646994863e-32
    vertex 0.0 3.5999999999999996 1.3000000000000005
    vertex 0.0 14.600000000000007 1.3000000000000005
  endloop
endfacet
facet normal -1.0 0.0 0.0
  outer loop
    vertex 0.0 18.200000000000006 3.913489646994863e-32
    vertex 0.0 14.600000000000007 1.3000000000000005
    vertex 0.0 18.200000000000006 9.6
  endloop
endfacet
facet normal 0.0 1.0 0.0
  outer loop
    vertex 0.0 18.200000000000006 3.913489646994863e-32
    vertex 5.599999999999998 18.200000000000006 1.3000000000000005
    vertex 45.49999999999999 18.200000000000006 3.913489646994863e-32
  endloop
endfacet
facet normal 0.0 1.0 0.0
  outer loop
    vertex 5.599999999999998 18.200000000000006 1.3000000000000005
    vertex 0.0 18.200000000000006 3.913489646994863e-32
    vertex 0.0 18.200000000000006 9.6
  endloop
endfacet
facet normal 0.0 1.0 0.0
  outer loop
    vertex 5.599999999999998 18.200000000000006 1.3000000000000005
    vertex 0.0 18.200000000000006 9.6
    vertex 5.599999999999998 18.200000000000006 9.6
  endloop
endfacet
facet normal 0.0 1.0 0.0
  outer loop
    vertex 39.89999999999999 18.200000000000006 9.6
    vertex 44.9 18.200000000000006 1.5999999999999999
    vertex 39.89999999999999 18.200000000000006 1.3000000000000005
  endloop
endfacet
facet normal 0.0 1.0 0.0
  outer loop
    vertex 44.9 18.200000000000006 1.5999999999999999
    vertex 39.89999999999999 18.200000000000006 9.6
    vertex 44.9 18.200000000000006 9.6
  endloop
endfacet
facet normal 0.0 1.0 0.0
  outer loop
    vertex 45.49999999999999 18.200000000000006 3.913489646994863e-32
    vertex 39.89999999999999 18.200000000000006 1.3000000000000005
    vertex 45.49999999999999 18.200000000000006 1.5999999999999999
  endloop
endfacet
facet normal 0.0 1.0 0.0
  outer loop
    vertex 39.89999999999999 18.200000000000006 1.3000000000000005
    vertex 45.49999999999999 18.200000000000006 3.913489646994863e-32
    vertex 5.599999999999998 18.200000000000006 1.3000000000000005
  endloop
endfacet
facet normal 0.0 1.0 0.0
  outer loop
    vertex 45.49999999999999 18.200000000000006 1.5999999999999999
    vertex 39.89999999999999 18.200000000000006 1.3000000000000005
    vertex 44.9 18.200000000000006 1.5999999999999999
  endloop
endfacet
facet normal 1.0 -0.0 -0.0
  outer loop
    vertex 45.49999999999999 18.200000000000006 3.913489646994863e-32
    vertex 45.49999999999999 0.0 1.5999999999999999
    vertex 45.49999999999999 0.0 3.913489646994863e-32
  endloop
endfacet
facet normal 1.0 -0.0 -0.0
  outer loop
    vertex 45.49999999999999 0.0 1.5999999999999999
    vertex 45.49999999999999 18.200000000000006 3.913489646994863e-32
    vertex 45.49999999999999 18.200000000000006 1.5999999999999999
  endloop
endfacet
facet normal 0.0 -1.0 0.0
  outer loop
    vertex 45.49999999999999 0.0 3.913489646994863e-32
    vertex 39.89999999999999 0.0 1.3000000000000005
    vertex 0.0 0.0 3.913489646994863e-32
  endloop
endfacet
facet normal 0.0 -1.0 0.0
  outer loop
    vertex 39.89999999999999 0.0 1.3000000000000005
    vertex 45.49999999999999 0.0 3.913489646994863e-32
    vertex 45.49999999999999 0.0 1.5999999999999999
  endloop
endfacet
facet normal 0.0 -1.0 0.0
  outer loop
    vertex 39.89999999999999 0.0 1.3000000000000005
    vertex 45.49999999999999 0.0 1.5999999999999999
    vertex 44.9 0.0 1.5999999999999999
  endloop
endfacet
facet normal 0.0 -1.0 0.0
  outer loop
    vertex 39.89999999999999 0.0 1.3000000000000005
    vertex 44.9 0.0 1.5999999999999999
    vertex 39.89999999999999 0.0 9.6
  endloop
endfacet
facet normal 0.0 -1.0 0.0
  outer loop
    vertex 39.89999999999999 0.0 9.6
    vertex 44.9 0.0 1.5999999999999999
    vertex 44.9 0.0 9.6
  endloop
endfacet
facet normal 0.0 -1.0 0.0
  outer loop
    vertex 0.0 0.0 3.913489646994863e-32
    vertex 5.6 0.0 1.3000000000000005
    vertex 0.0 0.0 9.6
  endloop
endfacet
facet normal 0.0 -1.0 0.0
  outer loop
    vertex 5.6 0.0 1.3000000000000005
    vertex 0.0 0.0 3.913489646994863e-32
    vertex 39.89999999999999 0.0 1.3000000000000005
  endloop
endfacet
facet normal 0.0 -1.0 0.0
  outer loop
    vertex 0.0 0.0 9.6
    vertex 5.6 0.0 1.3000000000000005
    vertex 5.6 0.0 9.6
  endloop
endfacet
facet normal 1.0 -0.0 -0.0
  outer loop
    vertex 44.9 0.6000000000000022 1.5999999999999999
    vertex 44.9 0.0 9.6
    vertex 44.9 0.0 1.5999999999999999
  endloop
endfacet
facet normal 1.0 -0.0 -0.0
  outer loop
    vertex 44.9 0.0 9.6
    vertex 44.9 0.6000000000000022 1.5999999999999999
    vertex 44.9 0.6000000000000022 9.6
  endloop
endfacet
facet normal -3.7327989900014807e-17 1.0 2.4072696948485444e-17
  outer loop
    vertex 0.5999999999999999 0.6 0.6
    vertex 5.6 0.6 1.3000000000000005
    vertex 44.9 0.6000000000000022 0.6
  endloop
endfacet
facet normal -3.7327989900014807e-17 1.0 2.4072696948485444e-17
  outer loop
    vertex 5.6 0.6 1.3000000000000005
    vertex 0.5999999999999999 0.6 0.6
    vertex 0.5999999999999999 0.6 9.6
  endloop
endfacet
facet normal -3.7327989900014807e-17 1.0 2.4072696948485444e-17
  outer loop
    vertex 5.6 0.6 1.3000000000000005
    vertex 0.5999999999999999 0.6 9.6
    vertex 5.6 0.6 9.6
  endloop
endfacet
facet normal -3.7327989900014807e-17 1.0 2.4072696948485444e-17
  outer loop
    vertex 44.9 0.6000000000000022 0.6
    vertex 39.89999999999999 0.6 1.3000000000000005
    vertex 44.9 0.6000000000000022 1.5999999999999999
  endloop
endfacet
facet normal -3.7327989900014807e-17 1.0 2.4072696948485444e-17
  outer loop
    vertex 39.89999999999999 0.6 1.3000000000000005
    vertex 44.9 0.6000000000000022 0.6
    vertex 5.6 0.6 1.3000000000000005
  endloop
endfacet
facet normal -3.7327989900014807e-17 1.0 2.4072696948485444e-17
  outer loop
    vertex 44.9 0.6000000000000022 1.5999999999999999
    vertex 39.89999999999999 0.6 1.3000000000000005
    vertex 39.89999999999999 0.6 9.6
  endloop
endfacet
facet normal -3.7327989900014807e-17 1.0 2.4072696948485444e-17
  outer loop
    vertex 44.9 0.6000000000000022 1.5999999999999999
    vertex 39.89999999999999 0.6 9.6
    vertex 44.9 0.6000000000000022 9.6
  endloop
endfacet
facet normal 1.0 1.4615679940034824e-17 -8.21750648492827e-19
  outer loop
    vertex 0.5999999999999999 0.6 0.6
    vertex 0.5999999999999999 3.5999999999999996 1.3000000000000005
    vertex 0.5999999999999999 0.6 9.6
  endloop
endfacet
facet normal 1.0 1.4615679940034824e-17 -8.21750648492827e-19
  outer loop
    vertex 0.5999999999999999 3.5999999999999996 1.3000000000000005
    vertex 0.5999999999999999 0.6 0.6
    vertex 0.5999999999999995 17.60000000000001 0.6
  endloop
endfacet
facet normal 1.0 1.4615679940034824e-17 -8.21750648492827e-19
  outer loop
    vertex 0.5999999999999999 3.5999999999999996 1.3000000000000005
    vertex 0.5999999999999995 17.60000000000001 0.6
    vertex 0.5999999999999999 14.600000000000007 1.3000000000000005
  endloop
endfacet
facet normal 1.0 1.4615679940034824e-17 -8.21750648492827e-19
  outer loop
    vertex 0.5999999999999999 14.600000000000007 1.3000000000000005
    vertex 0.5999999999999995 17.60000000000001 0.6
    vertex 0.5999999999999999 14.600000000000007 9.6
  endloop
endfacet
facet normal 1.0 1.4615679940034824e-17 -8.21750648492827e-19
  outer loop
    vertex 0.5999999999999999 14.600000000000007 9.6
    vertex 0.5999999999999995 17.60000000000001 0.6
    vertex 0.5999999999999995 17.60000000000001 9.6
  endloop
endfacet
facet normal 1.0 1.4615679940034824e-17 -8.21750648492827e-19
  outer loop
    vertex 0.5999999999999999 3.5999999999999996 9.6
    vertex 0.5999999999999999 0.6 9.6
    vertex 0.5999999999999999 3.5999999999999996 1.3000000000000005
  endloop
endfacet
facet normal 1.0 -0.0 -0.0
  outer loop
    vertex 44.9 18.200000000000006 1.5999999999999999
    vertex 44.9 17.60000000000001 9.6
    vertex 44.9 17.60000000000001 1.5999999999999999
  endloop
endfacet
facet normal 1.0 -0.0 -0.0
  outer loop
    vertex 44.9 17.60000000000001 9.6
    vertex 44.9 18.200000000000006 1.5999999999999999
    vertex 44.9 18.200000000000006 9.6
  endloop
endfacet
facet normal -0.0 -0.0 1.0
  outer loop
    vertex 0.5999999999999999 0.6 0.6
    vertex 44.9 17.60000000000001 0.6
    vertex 0.5999999999999995 17.60000000000001 0.6
  endloop
endfacet
facet normal -0.0 -0.0 1.0
  outer loop
    vertex 44.9 17.60000000000001 0.6
    vertex 0.5999999999999999 0.6 0.6
    vertex 44.9 0.6000000000000022 0.6
  endloop
endfacet
facet normal 0.0 0.0 1.0
  outer loop
    vertex 45.49999999999999 0.0 1.5999999999999999
    vertex 44.9 0.6000000000000022 1.5999999999999999
    vertex 44.9 0.0 1.5999999999999999
  endloop
endfacet
facet normal 0.0 0.0 1.0
  outer loop
    vertex 44.9 0.6000000000000022 1.5999999999999999
    vertex 45.49999999999999 0.0 1.5999999999999999
    vertex 44.9 17.60000000000001 1.5999999999999999
  endloop
endfacet
facet normal 0.0 0.0 1.0
  outer loop
    vertex 44.9 17.60000000000001 1.5999999999999999
    vertex 45.49999999999999 0.0 1.5999999999999999
    vertex 44.9 18.200000000000006 1.5999999999999999
  endloop
endfacet
facet normal 0.0 0.0 1.0
  outer loop
    vertex 44.9 18.200000000000006 1.5999999999999999
    vertex 45.49999999999999 0.0 1.5999999999999999
    vertex 45.49999999999999 18.200000000000006 1.5999999999999999
  endloop
endfacet
facet normal -1.0 0.0 0.0
  outer loop
    vertex 44.9 17.60000000000001 1.5999999999999999
    vertex 44.9 0.6000000000000022 0.6
    vertex 44.9 0.6000000000000022 1.5999999999999999
  endloop
endfacet
facet normal -1.0 0.0 0.0
  outer loop
    vertex 44.9 0.6000000000000022 0.6
    vertex 44.9 17.60000000000001 1.5999999999999999
    vertex 44.9 17.60000000000001 0.6
  endloop
endfacet
facet normal -0.0 -0.0 1.0
  outer loop
    vertex 44.9 0.0 9.6
    vertex 39.89999999999999 0.6 9.6
    vertex 39.89999999999999 0.0 9.6
  endloop
endfacet
facet normal -0.0 -0.0 1.0
  outer loop
    vertex 39.89999999999999 0.6 9.6
    vertex 44.9 0.0 9.6
    vertex 44.9 0.6000000000000022 9.6
  endloop
endfacet
facet normal -0.0 -0.0 1.0
  outer loop
    vertex 44.9 17.60000000000001 9.6
    vertex 39.89999999999999 18.200000000000006 9.6
    vertex 39.89999999999999 17.60000000000001 9.6
  endloop
endfacet
facet normal -0.0 -0.0 1.0
  outer loop
    vertex 39.89999999999999 18.200000000000006 9.6
    vertex 44.9 17.60000000000001 9.6
    vertex 44.9 18.200000000000006 9.6
  endloop
endfacet
facet normal -0.0 -0.0 1.0
  outer loop
    vertex 0.0 0.0 9.6
    vertex 0.5999999999999999 0.6 9.6
    vertex 0.0 3.5999999999999996 9.6
  endloop
endfacet
facet normal -0.0 -0.0 1.0
  outer loop
    vertex 0.5999999999999999 0.6 9.6
    vertex 0.0 0.0 9.6
    vertex 5.6 0.0 9.6
  endloop
endfacet
facet normal -0.0 -0.0 1.0
  outer loop
    vertex 0.5999999999999999 0.6 9.6
    vertex 5.6 0.0 9.6
    vertex 5.6 0.6 9.6
  endloop
endfacet
facet normal -0.0 -0.0 1.0
  outer loop
    vertex 0.5999999999999999 3.5999999999999996 9.6
    vertex 0.0 3.5999999999999996 9.6
    vertex 0.5999999999999999 0.6 9.6
  endloop
endfacet
facet normal 0.0 -1.0 0.0
  outer loop
    vertex 44.9 17.60000000000001 0.6
    vertex 39.89999999999999 17.60000000000001 1.3000000000000005
    vertex 0.5999999999999995 17.60000000000001 0.6
  endloop
endfacet
facet normal 0.0 -1.0 0.0
  outer loop
    vertex 39.89999999999999 17.60000000000001 1.3000000000000005
    vertex 44.9 17.60000000000001 0.6
    vertex 44.9 17.60000000000001 1.5999999999999999
  endloop
endfacet
facet normal 0.0 -1.0 0.0
  outer loop
    vertex 39.89999999999999 17.60000000000001 1.3000000000000005
    vertex 44.9 17.60000000000001 1.5999999999999999
    vertex 39.89999999999999 17.60000000000001 9.6
  endloop
endfacet
facet normal 0.0 -1.0 0.0
  outer loop
    vertex 39.89999999999999 17.60000000000001 9.6
    vertex 44.9 17.60000000000001 1.5999999999999999
    vertex 44.9 17.60000000000001 9.6
  endloop
endfacet
facet normal 0.0 -1.0 0.0
  outer loop
    vertex 0.5999999999999995 17.60000000000001 0.6
    vertex 5.599999999999998 17.60000000000001 1.3000000000000005
    vertex 0.5999999999999995 17.60000000000001 9.6
  endloop
endfacet
facet normal 0.0 -1.0 0.0
  outer loop
    vertex 5.599999999999998 17.60000000000001 1.3000000000000005
    vertex 0.5999999999999995 17.60000000000001 0.6
    vertex 39.89999999999999 17.60000000000001 1.3000000000000005
  endloop
endfacet
facet normal 0.0 -1.0 0.0
  outer loop
    vertex 0.5999999999999995 17.60000000000001 9.6
    vertex 5.599999999999998 17.60000000000001 1.3000000000000005
    vertex 5.599999999999998 17.60000000000001 9.6
  endloop
endfacet
facet normal -0.0 -0.0 1.0
  outer loop
    vertex 0.5999999999999999 14.600000000000007 9.6
    vertex 0.0 18.200000000000006 9.6
    vertex 0.0 14.600000000000007 9.6
  endloop
endfacet
facet normal -0.0 -0.0 1.0
  outer loop
    vertex 0.0 18.200000000000006 9.6
    vertex 0.5999999999999999 14.600000000000007 9.6
    vertex 0.5999999999999995 17.60000000000001 9.6
  endloop
endfacet
facet normal -0.0 -0.0 1.0
  outer loop
    vertex 0.5999999999999995 17.60000000000001 9.6
    vertex 5.599999999999998 18.200000000000006 9.6
    vertex 0.0 18.200000000000006 9.6
  endloop
endfacet
facet normal -0.0 -0.0 1.0
  outer loop
    vertex 5.599999999999998 18.200000000000006 9.6
    vertex 0.5999999999999995 17.60000000000001 9.6
    vertex 5.599999999999998 17.60000000000001 9.6
  endloop
endfacet
facet normal -0.0 -0.0 1.0
  outer loop
    vertex 0.5999999999999999 3.5999999999999996 1.3000000000000005
    vertex 0.0 14.600000000000007 1.3000000000000005
    vertex 0.0 3.5999999999999996 1.3000000000000005
  endloop
endfacet
facet normal -0.0 -0.0 1.0
  outer loop
    vertex 0.0 14.600000000000007 1.3000000000000005
    vertex 0.5999999999999999 3.5999999999999996 1.3000000000000005
    vertex 0.5999999999999999 14.600000000000007 1.3000000000000005
  endloop
endfacet
facet normal 0.0 -1.0 0.0
  outer loop
    vertex 0.5999999999999999 14.600000000000007 9.6
    vertex 0.0 14.600000000000007 1.3000000000000005
    vertex 0.5999999999999999 14.600000000000007 1.3000000000000005
  endloop
endfacet
facet normal 0.0 -1.0 0.0
  outer loop
    vertex 0.0 14.600000000000007 1.3000000000000005
    vertex 0.5999999999999999 14.600000000000007 9.6
    vertex 0.0 14.600000000000007 9.6
  endloop
endfacet
facet normal -0.0 1.0 -0.0
  outer loop
    vertex 0.0 3.5999999999999996 9.6
    vertex 0.5999999999999999 3.5999999999999996 1.3000000000000005
    vertex 0.0 3.5999999999999996 1.3000000000000005
  endloop
endfacet
facet normal -0.0 1.0 -0.0
  outer loop
    vertex 0.5999999999999999 3.5999999999999996 1.3000000000000005
    vertex 0.0 3.5999999999999996 9.6
    vertex 0.5999999999999999 3.5999999999999996 9.6
  endloop
endfacet
facet normal -0.0 -0.0 1.0
  outer loop
    vertex 39.89999999999999 17.60000000000001 1.3000000000000005
    vertex 5.599999999999998 18.200000000000006 1.3000000000000005
    vertex 5.599999999999998 17.60000000000001 1.3000000000000005
  endloop
endfacet
facet normal -0.0 -0.0 1.0
  outer loop
    vertex 5.599999999999998 18.200000000000006 1.3000000000000005
    vertex 39.89999999999999 17.60000000000001 1.3000000000000005
    vertex 39.89999999999999 18.200000000000006 1.3000000000000005
  endloop
endfacet
facet normal 1.0 -0.0 -0.0
  outer loop
    vertex 5.599999999999998 18.200000000000006 1.3000000000000005
    vertex 5.599999999999998 17.60000000000001 9.6
    vertex 5.599999999999998 17.60000000000001 1.3000000000000005
  endloop
endfacet
facet normal 1.0 -0.0 -0.0
  outer loop
    vertex 5.599999999999998 17.60000000000001 9.6
    vertex 5.599999999999998 18.200000000000006 1.3000000000000005
    vertex 5.599999999999998 18.200000000000006 9.6
  endloop
endfacet
facet normal -1.0 0.0 0.0
  outer loop
    vertex 39.89999999999999 18.200000000000006 9.6
    vertex 39.89999999999999 17.60000000000001 1.3000000000000005
    vertex 39.89999999999999 17.60000000000001 9.6
  endloop
endfacet
facet normal -1.0 0.0 0.0
  outer loop
    vertex 39.89999999999999 17.60000000000001 1.3000000000000005
    vertex 39.89999999999999 18.200000000000006 9.6
    vertex 39.89999999999999 18.200000000000006 1.3000000000000005
  endloop
endfacet
facet normal -0.0 -0.0 1.0
  outer loop
    vertex 39.89999999999999 0.0 1.3000000000000005
    vertex 5.6 0.6 1.3000000000000005
    vertex 5.6 0.0 1.3000000000000005
  endloop
endfacet
facet normal -0.0 -0.0 1.0
  outer loop
    vertex 5.6 0.6 1.3000000000000005
    vertex 39.89999999999999 0.0 1.3000000000000005
    vertex 39.89999999999999 0.6 1.3000000000000005
  endloop
endfacet
facet normal 1.0 -0.0 -0.0
  outer loop
    vertex 5.6 0.6 1.3000000000000005
    vertex 5.6 0.0 9.6
    vertex 5.6 0.0 1.3000000000000005
  endloop
endfacet
facet normal 1.0 -0.0 -0.0
  outer loop
    vertex 5.6 0.0 9.6
    vertex 5.6 0.6 1.3000000000000005
    vertex 5.6 0.6 9.6
  endloop
endfacet
facet normal -1.0 0.0 0.0
  outer loop
    vertex 39.89999999999999 0.6 9.6
    vertex 39.89999999999999 0.0 1.3000000000000005
    vertex 39.89999999999999 0.0 9.6
  endloop
endfacet
facet normal -1.0 0.0 0.0
  outer loop
    vertex 39.89999999999999 0.0 1.3000000000000005
    vertex 39.89999999999999 0.6 9.6
    vertex 39.89999999999999 0.6 1.3000000000000005
  endloop
endfacet
endsolid BatteryHolder
