solid ServoHolder
facet normal -1.0 -8.812395257962139e-16 -8.652169889635594e-16
  outer loop
    vertex -3.3839597790574766e-14 16.999999999999993 22.00000000000002
    vertex -1.3042344981784026e-14 14.999999999999995 7.578659921847475e-15
    vertex -3.2077118738982337e-14 14.999999999999986 22.00000000000001
  endloop
endfacet
facet normal -1.0 -8.812395257962139e-16 -8.652169889635594e-16
  outer loop
    vertex -1.3042344981784026e-14 14.999999999999995 7.578659921847475e-15
    vertex -3.3839597790574766e-14 16.999999999999993 22.00000000000002
    vertex -1.4804824033376462e-14 16.999999999999993 7.754907827006718e-15
  endloop
endfacet
facet normal 9.064177979618249e-16 -1.0 -4.486310313144371e-16
  outer loop
    vertex 48.99999999999998 15.000000000000037 5.0230652970384426e-14
    vertex 6.999999999999966 14.99999999999999 22.000000000000018
    vertex 6.999999999999988 15.000000000000004 1.515731984369495e-14
  endloop
endfacet
facet normal 9.064177979618249e-16 -1.0 -4.486310313144371e-16
  outer loop
    vertex 6.999999999999966 14.99999999999999 22.000000000000018
    vertex 48.99999999999998 15.000000000000037 5.0230652970384426e-14
    vertex 48.99999999999995 15.000000000000032 22.000000000000057
  endloop
endfacet
facet normal 8.328979321102692e-16 5.3970650383691885e-16 -1.0
  outer loop
    vertex 55.999999999999986 17.000000000000043 5.6046833840639464e-14
    vertex -1.3042344981784026e-14 14.999999999999995 7.578659921847475e-15
    vertex -1.4804824033376462e-14 16.999999999999993 7.754907827006718e-15
  endloop
endfacet
facet normal 8.328979321102692e-16 5.3970650383691885e-16 -1.0
  outer loop
    vertex -1.3042344981784026e-14 14.999999999999995 7.578659921847475e-15
    vertex 55.999999999999986 17.000000000000043 5.6046833840639464e-14
    vertex 2.9999999999999862 14.999999999999998 1.0751122214713859e-14
  endloop
endfacet
facet normal 8.328979321102692e-16 5.3970650383691885e-16 -1.0
  outer loop
    vertex 2.9999999999999862 14.999999999999998 1.0751122214713859e-14
    vertex 55.999999999999986 17.000000000000043 5.6046833840639464e-14
    vertex 6.999999999999988 15.000000000000004 1.515731984369495e-14
  endloop
endfacet
facet normal 8.328979321102692e-16 5.3970650383691885e-16 -1.0
  outer loop
    vertex 2.9999999999999862 14.999999999999998 1.0751122214713859e-14
    vertex 6.999999999999988 15.000000000000004 1.515731984369495e-14
    vertex 2.9999999999999982 2.0000000000000018 4.5824455341403335e-15
  endloop
endfacet
facet normal 8.328979321102692e-16 5.3970650383691885e-16 -1.0
  outer loop
    vertex 6.999999999999988 15.000000000000004 1.515731984369495e-14
    vertex 55.999999999999986 17.000000000000043 5.6046833840639464e-14
    vertex 48.99999999999998 15.000000000000037 5.0230652970384426e-14
  endloop
endfacet
facet normal 8.328979321102692e-16 5.3970650383691885e-16 -1.0
  outer loop
    vertex 48.99999999999998 15.000000000000037 5.0230652970384426e-14
    vertex 55.999999999999986 17.000000000000043 5.6046833840639464e-14
    vertex 52.99999999999998 15.000000000000043 5.2345627832295344e-14
  endloop
endfacet
facet normal 8.328979321102692e-16 5.3970650383691885e-16 -1.0
  outer loop
    vertex 48.99999999999998 15.000000000000037 5.0230652970384426e-14
    vertex 52.99999999999998 15.000000000000043 5.2345627832295344e-14
    vertex 48.999999999999986 2.0000000000000413 4.1947001427899976e-14
  endloop
endfacet
facet normal 8.328979321102692e-16 5.3970650383691885e-16 -1.0
  outer loop
    vertex 52.99999999999998 15.000000000000043 5.2345627832295344e-14
    vertex 55.999999999999986 17.000000000000043 5.6046833840639464e-14
    vertex 55.999999999999986 15.000000000000043 5.5518090125161734e-14
  endloop
endfacet
facet normal 8.328979321102692e-16 5.3970650383691885e-16 -1.0
  outer loop
    vertex 2.9999999999999982 2.0000000000000018 4.5824455341403335e-15
    vertex 0.0 0.0 0.0
    vertex -1.762479051592436e-15 1.9999999999999991 1.233735336114705e-15
  endloop
endfacet
facet normal 8.328979321102692e-16 5.3970650383691885e-16 -1.0
  outer loop
    vertex 0.0 0.0 0.0
    vertex 2.9999999999999982 2.0000000000000018 4.5824455341403335e-15
    vertex 55.999999999999986 5.0759396685862156e-14 4.5824455341403336e-14
  endloop
endfacet
facet normal 8.328979321102692e-16 5.3970650383691885e-16 -1.0
  outer loop
    vertex 55.999999999999986 5.0759396685862156e-14 4.5824455341403336e-14
    vertex 2.9999999999999982 2.0000000000000018 4.5824455341403335e-15
    vertex 7.0 2.000000000000005 6.697420396051256e-15
  endloop
endfacet
facet normal 8.328979321102692e-16 5.3970650383691885e-16 -1.0
  outer loop
    vertex 7.0 2.000000000000005 6.697420396051256e-15
    vertex 2.9999999999999982 2.0000000000000018 4.5824455341403335e-15
    vertex 6.999999999999988 15.000000000000004 1.515731984369495e-14
  endloop
endfacet
facet normal 8.328979321102692e-16 5.3970650383691885e-16 -1.0
  outer loop
    vertex 55.999999999999986 5.0759396685862156e-14 4.5824455341403336e-14
    vertex 7.0 2.000000000000005 6.697420396051256e-15
    vertex 48.999999999999986 2.0000000000000413 4.1947001427899976e-14
  endloop
endfacet
facet normal 8.328979321102692e-16 5.3970650383691885e-16 -1.0
  outer loop
    vertex 55.999999999999986 5.0759396685862156e-14 4.5824455341403336e-14
    vertex 48.999999999999986 2.0000000000000413 4.1947001427899976e-14
    vertex 52.99999999999999 2.0000000000000497 4.441447210012938e-14
  endloop
endfacet
facet normal 8.328979321102692e-16 5.3970650383691885e-16 -1.0
  outer loop
    vertex 52.99999999999999 2.0000000000000497 4.441447210012938e-14
    vertex 48.999999999999986 2.0000000000000413 4.1947001427899976e-14
    vertex 52.99999999999998 15.000000000000043 5.2345627832295344e-14
  endloop
endfacet
facet normal 8.328979321102692e-16 5.3970650383691885e-16 -1.0
  outer loop
    vertex 55.999999999999986 5.0759396685862156e-14 4.5824455341403336e-14
    vertex 52.99999999999999 2.0000000000000497 4.441447210012938e-14
    vertex 55.999999999999986 2.000000000000047 4.7410686487836525e-14
  endloop
endfacet
facet normal -8.853383142882926e-16 -1.4886904397501678e-15 1.0
  outer loop
    vertex -1.9387269567516796e-14 -2.8199664825478975e-15 22.0
    vertex 2.9999999999999782 1.9999999999999878 21.99999999999999
    vertex -2.0797252808790744e-14 1.9999999999999878 21.99999999999999
  endloop
endfacet
facet normal -8.853383142882926e-16 -1.4886904397501678e-15 1.0
  outer loop
    vertex 2.9999999999999782 1.9999999999999878 21.99999999999999
    vertex -1.9387269567516796e-14 -2.8199664825478975e-15 22.0
    vertex 55.99999999999995 5.639932965095795e-14 22.00000000000005
  endloop
endfacet
facet normal -8.853383142882926e-16 -1.4886904397501678e-15 1.0
  outer loop
    vertex 2.9999999999999782 1.9999999999999878 21.99999999999999
    vertex 55.99999999999995 5.639932965095795e-14 22.00000000000005
    vertex 6.999999999999974 1.9999999999999936 21.999999999999993
  endloop
endfacet
facet normal -8.853383142882926e-16 -1.4886904397501678e-15 1.0
  outer loop
    vertex 2.9999999999999782 1.9999999999999878 21.99999999999999
    vertex 6.999999999999974 1.9999999999999936 21.999999999999993
    vertex 6.999999999999966 14.99999999999999 22.000000000000018
  endloop
endfacet
facet normal -8.853383142882926e-16 -1.4886904397501678e-15 1.0
  outer loop
    vertex 6.999999999999974 1.9999999999999936 21.999999999999993
    vertex 55.99999999999995 5.639932965095795e-14 22.00000000000005
    vertex 48.999999999999964 2.0000000000000275 22.00000000000003
  endloop
endfacet
facet normal -8.853383142882926e-16 -1.4886904397501678e-15 1.0
  outer loop
    vertex 48.999999999999964 2.0000000000000275 22.00000000000003
    vertex 55.99999999999995 5.639932965095795e-14 22.00000000000005
    vertex 52.99999999999996 2.00000000000003 22.00000000000004
  endloop
endfacet
facet normal -8.853383142882926e-16 -1.4886904397501678e-15 1.0
  outer loop
    vertex 48.999999999999964 2.0000000000000275 22.00000000000003
    vertex 52.99999999999996 2.00000000000003 22.00000000000004
    vertex 52.99999999999995 15.000000000000034 22.000000000000057
  endloop
endfacet
facet normal -8.853383142882926e-16 -1.4886904397501678e-15 1.0
  outer loop
    vertex 52.99999999999996 2.00000000000003 22.00000000000004
    vertex 55.99999999999995 5.639932965095795e-14 22.00000000000005
    vertex 55.99999999999995 2.000000000000033 22.000000000000032
  endloop
endfacet
facet normal -8.853383142882926e-16 -1.4886904397501678e-15 1.0
  outer loop
    vertex -3.2077118738982337e-14 14.999999999999986 22.00000000000001
    vertex 55.99999999999995 17.000000000000043 22.00000000000007
    vertex -3.3839597790574766e-14 16.999999999999993 22.00000000000002
  endloop
endfacet
facet normal -8.853383142882926e-16 -1.4886904397501678e-15 1.0
  outer loop
    vertex 55.99999999999995 17.000000000000043 22.00000000000007
    vertex -3.2077118738982337e-14 14.999999999999986 22.00000000000001
    vertex 2.9999999999999676 14.999999999999986 22.00000000000001
  endloop
endfacet
facet normal -8.853383142882926e-16 -1.4886904397501678e-15 1.0
  outer loop
    vertex 55.99999999999995 17.000000000000043 22.00000000000007
    vertex 2.9999999999999676 14.999999999999986 22.00000000000001
    vertex 6.999999999999966 14.99999999999999 22.000000000000018
  endloop
endfacet
facet normal -8.853383142882926e-16 -1.4886904397501678e-15 1.0
  outer loop
    vertex 6.999999999999966 14.99999999999999 22.000000000000018
    vertex 2.9999999999999676 14.999999999999986 22.00000000000001
    vertex 2.9999999999999782 1.9999999999999878 21.99999999999999
  endloop
endfacet
facet normal -8.853383142882926e-16 -1.4886904397501678e-15 1.0
  outer loop
    vertex 55.99999999999995 17.000000000000043 22.00000000000007
    vertex 6.999999999999966 14.99999999999999 22.000000000000018
    vertex 48.99999999999995 15.000000000000032 22.000000000000057
  endloop
endfacet
facet normal -8.853383142882926e-16 -1.4886904397501678e-15 1.0
  outer loop
    vertex 55.99999999999995 17.000000000000043 22.00000000000007
    vertex 48.99999999999995 15.000000000000032 22.000000000000057
    vertex 52.99999999999995 15.000000000000034 22.000000000000057
  endloop
endfacet
facet normal -8.853383142882926e-16 -1.4886904397501678e-15 1.0
  outer loop
    vertex 52.99999999999995 15.000000000000034 22.000000000000057
    vertex 48.99999999999995 15.000000000000032 22.000000000000057
    vertex 48.999999999999964 2.0000000000000275 22.00000000000003
  endloop
endfacet
facet normal -8.853383142882926e-16 -1.4886904397501678e-15 1.0
  outer loop
    vertex 55.99999999999995 17.000000000000043 22.00000000000007
    vertex 52.99999999999995 15.000000000000034 22.000000000000057
    vertex 55.99999999999995 15.000000000000034 22.000000000000057
  endloop
endfacet
facet normal 9.819526144586433e-16 -1.0 6.4090147330635e-17
  outer loop
    vertex 55.999999999999986 5.0759396685862156e-14 4.5824455341403336e-14
    vertex -1.9387269567516796e-14 -2.8199664825478975e-15 22.0
    vertex 0.0 0.0 0.0
  endloop
endfacet
facet normal 9.819526144586433e-16 -1.0 6.4090147330635e-17
  outer loop
    vertex -1.9387269567516796e-14 -2.8199664825478975e-15 22.0
    vertex 55.999999999999986 5.0759396685862156e-14 4.5824455341403336e-14
    vertex 55.99999999999995 5.639932965095795e-14 22.00000000000005
  endloop
endfacet
facet normal 1.0 -6.519909329072039e-30 1.5381635359352162e-15
  outer loop
    vertex 55.999999999999986 15.000000000000043 5.5518090125161734e-14
    vertex 55.99999999999995 17.000000000000043 22.00000000000007
    vertex 55.99999999999995 15.000000000000034 22.000000000000057
  endloop
endfacet
facet normal 1.0 -6.519909329072039e-30 1.5381635359352162e-15
  outer loop
    vertex 55.99999999999995 17.000000000000043 22.00000000000007
    vertex 55.999999999999986 15.000000000000043 5.5518090125161734e-14
    vertex 55.999999999999986 17.000000000000043 5.6046833840639464e-14
  endloop
endfacet
facet normal -1.0 -7.931155732166003e-16 -8.732282573798891e-16
  outer loop
    vertex -2.0797252808790744e-14 1.9999999999999878 21.99999999999999
    vertex 0.0 0.0 0.0
    vertex -1.9387269567516796e-14 -2.8199664825478975e-15 22.0
  endloop
endfacet
facet normal -1.0 -7.931155732166003e-16 -8.732282573798891e-16
  outer loop
    vertex 0.0 0.0 0.0
    vertex -2.0797252808790744e-14 1.9999999999999878 21.99999999999999
    vertex -1.762479051592436e-15 1.9999999999999991 1.233735336114705e-15
  endloop
endfacet
facet normal -8.392757388535416e-16 1.0 5.768113259757056e-16
  outer loop
    vertex 6.999999999999974 1.9999999999999936 21.999999999999993
    vertex 48.999999999999986 2.0000000000000413 4.1947001427899976e-14
    vertex 7.0 2.000000000000005 6.697420396051256e-15
  endloop
endfacet
facet normal -8.392757388535416e-16 1.0 5.768113259757056e-16
  outer loop
    vertex 48.999999999999986 2.0000000000000413 4.1947001427899976e-14
    vertex 6.999999999999974 1.9999999999999936 21.999999999999993
    vertex 48.999999999999964 2.0000000000000275 22.00000000000003
  endloop
endfacet
facet normal -8.812395257962181e-16 1.0 6.40901473306329e-17
  outer loop
    vertex -3.3839597790574766e-14 16.999999999999993 22.00000000000002
    vertex 55.999999999999986 17.000000000000043 5.6046833840639464e-14
    vertex -1.4804824033376462e-14 16.999999999999993 7.754907827006718e-15
  endloop
endfacet
facet normal -8.812395257962181e-16 1.0 6.40901473306329e-17
  outer loop
    vertex 55.999999999999986 17.000000000000043 5.6046833840639464e-14
    vertex -3.3839597790574766e-14 16.999999999999993 22.00000000000002
    vertex 55.99999999999995 17.000000000000043 22.00000000000007
  endloop
endfacet
facet normal 1.0 8.134518699657386e-16 1.0574874309554622e-15
  outer loop
    vertex 7.0 2.000000000000005 6.697420396051256e-15
    vertex 6.999999999999966 14.99999999999999 22.000000000000018
    vertex 6.999999999999974 1.9999999999999936 21.999999999999993
  endloop
endfacet
facet normal 1.0 8.134518699657386e-16 1.0574874309554622e-15
  outer loop
    vertex 6.999999999999966 14.99999999999999 22.000000000000018
    vertex 7.0 2.000000000000005 6.697420396051256e-15
    vertex 6.999999999999988 15.000000000000004 1.515731984369495e-14
  endloop
endfacet
facet normal -1.0 -8.676819946301204e-16 -1.2818029466126813e-15
  outer loop
    vertex 48.99999999999995 15.000000000000032 22.000000000000057
    vertex 48.999999999999986 2.0000000000000413 4.1947001427899976e-14
    vertex 48.999999999999964 2.0000000000000275 22.00000000000003
  endloop
endfacet
facet normal -1.0 -8.676819946301204e-16 -1.2818029466126813e-15
  outer loop
    vertex 48.999999999999986 2.0000000000000413 4.1947001427899976e-14
    vertex 48.99999999999995 15.000000000000032 22.000000000000057
    vertex 48.99999999999998 15.000000000000037 5.0230652970384426e-14
  endloop
endfacet
facet normal 1.0 5.530401260418789e-30 1.5381635359352174e-15
  outer loop
    vertex 55.999999999999986 2.000000000000047 4.7410686487836525e-14
    vertex 55.99999999999995 5.639932965095795e-14 22.00000000000005
    vertex 55.999999999999986 5.0759396685862156e-14 4.5824455341403336e-14
  endloop
endfacet
facet normal 1.0 5.530401260418789e-30 1.5381635359352174e-15
  outer loop
    vertex 55.99999999999995 5.639932965095795e-14 22.00000000000005
    vertex 55.999999999999986 2.000000000000047 4.7410686487836525e-14
    vertex 55.99999999999995 2.000000000000033 22.000000000000032
  endloop
endfacet
facet normal 4.699944137579833e-16 -1.0 -4.486310313144378e-16
  outer loop
    vertex 2.9999999999999862 14.999999999999998 1.0751122214713859e-14
    vertex -3.2077118738982337e-14 14.999999999999986 22.00000000000001
    vertex -1.3042344981784026e-14 14.999999999999995 7.578659921847475e-15
  endloop
endfacet
facet normal 4.699944137579833e-16 -1.0 -4.486310313144378e-16
  outer loop
    vertex -3.2077118738982337e-14 14.999999999999986 22.00000000000001
    vertex 2.9999999999999862 14.999999999999998 1.0751122214713859e-14
    vertex 2.9999999999999676 14.999999999999986 22.00000000000001
  endloop
endfacet
facet normal 1.0 8.676819946301208e-16 1.5381635359352176e-15
  outer loop
    vertex 52.99999999999999 2.0000000000000497 4.441447210012938e-14
    vertex 52.99999999999995 15.000000000000034 22.000000000000057
    vertex 52.99999999999996 2.00000000000003 22.00000000000004
  endloop
endfacet
facet normal 1.0 8.676819946301208e-16 1.5381635359352176e-15
  outer loop
    vertex 52.99999999999995 15.000000000000034 22.000000000000057
    vertex 52.99999999999999 2.0000000000000497 4.441447210012938e-14
    vertex 52.99999999999998 15.000000000000043 5.2345627832295344e-14
  endloop
endfacet
facet normal -4.699944137579835e-16 1.0 5.768113259757062e-16
  outer loop
    vertex -2.0797252808790744e-14 1.9999999999999878 21.99999999999999
    vertex 2.9999999999999982 2.0000000000000018 4.5824455341403335e-15
    vertex -1.762479051592436e-15 1.9999999999999991 1.233735336114705e-15
  endloop
endfacet
facet normal -4.699944137579835e-16 1.0 5.768113259757062e-16
  outer loop
    vertex 2.9999999999999982 2.0000000000000018 4.5824455341403335e-15
    vertex -2.0797252808790744e-14 1.9999999999999878 21.99999999999999
    vertex 2.9999999999999782 1.9999999999999878 21.99999999999999
  endloop
endfacet
facet normal -1.0 -8.676819946301215e-16 -8.652169889635602e-16
  outer loop
    vertex 2.9999999999999676 14.999999999999986 22.00000000000001
    vertex 2.9999999999999982 2.0000000000000018 4.5824455341403335e-15
    vertex 2.9999999999999782 1.9999999999999878 21.99999999999999
  endloop
endfacet
facet normal -1.0 -8.676819946301215e-16 -8.652169889635602e-16
  outer loop
    vertex 2.9999999999999982 2.0000000000000018 4.5824455341403335e-15
    vertex 2.9999999999999676 14.999999999999986 22.00000000000001
    vertex 2.9999999999999862 14.999999999999998 1.0751122214713859e-14
  endloop
endfacet
facet normal 4.593606711404719e-31 1.0 7.690817679676088e-16
  outer loop
    vertex 52.99999999999996 2.00000000000003 22.00000000000004
    vertex 55.999999999999986 2.000000000000047 4.7410686487836525e-14
    vertex 52.99999999999999 2.0000000000000497 4.441447210012938e-14
  endloop
endfacet
facet normal 4.593606711404719e-31 1.0 7.690817679676088e-16
  outer loop
    vertex 55.999999999999986 2.000000000000047 4.7410686487836525e-14
    vertex 52.99999999999996 2.00000000000003 22.00000000000004
    vertex 55.99999999999995 2.000000000000033 22.000000000000032
  endloop
endfacet
facet normal 2.4850659258418e-31 -1.0 -3.845408839838042e-16
  outer loop
    vertex 55.999999999999986 15.000000000000043 5.5518090125161734e-14
    vertex 52.99999999999995 15.000000000000034 22.000000000000057
    vertex 52.99999999999998 15.000000000000043 5.2345627832295344e-14
  endloop
endfacet
facet normal 2.4850659258418e-31 -1.0 -3.845408839838042e-16
  outer loop
    vertex 52.99999999999995 15.000000000000034 22.000000000000057
    vertex 55.999999999999986 15.000000000000043 5.5518090125161734e-14
    vertex 55.99999999999995 15.000000000000034 22.000000000000057
  endloop
endfacet
endsolid ServoHolder
