solid VRegHolder
facet normal -0.0 1.0 -0.0
  outer loop
    vertex 0.0 27.0 0.0
    vertex 2.0000000000000018 27.0 15.0
    vertex 53.00000000000001 27.0 0.0
  endloop
endfacet
facet normal -0.0 1.0 -0.0
  outer loop
    vertex 2.0000000000000018 27.0 15.0
    vertex 0.0 27.0 0.0
    vertex 0.0 27.0 25.0
  endloop
endfacet
facet normal -0.0 1.0 -0.0
  outer loop
    vertex 2.0000000000000018 27.0 15.0
    vertex 0.0 27.0 25.0
    vertex 2.0000000000000018 27.0 25.0
  endloop
endfacet
facet normal -0.0 1.0 -0.0
  outer loop
    vertex 53.00000000000001 27.0 15.0
    vertex 53.00000000000001 27.0 0.0
    vertex 2.0000000000000018 27.0 15.0
  endloop
endfacet
facet normal -0.0 -0.0 1.0
  outer loop
    vertex 51.00000000000001 1.9999999999999991 1.9999999999999998
    vertex 2.0000000000000018 25.000000000000004 1.9999999999999998
    vertex 1.9999999999999998 1.9999999999999998 1.9999999999999998
  endloop
endfacet
facet normal -0.0 -0.0 1.0
  outer loop
    vertex 2.0000000000000018 25.000000000000004 1.9999999999999998
    vertex 51.00000000000001 1.9999999999999991 1.9999999999999998
    vertex 51.00000000000001 25.000000000000004 1.9999999999999998
  endloop
endfacet
facet normal -1.0 0.0 0.0
  outer loop
    vertex 0.0 18.25 25.0
    vertex 0.0 8.75 23.0
    vertex 0.0 8.75 25.0
  endloop
endfacet
facet normal -1.0 0.0 0.0
  outer loop
    vertex 0.0 27.0 25.0
    vertex 0.0 23.000000000000004 23.0
    vertex 0.0 23.000000000000004 25.0
  endloop
endfacet
facet normal -1.0 0.0 0.0
  outer loop
    vertex 0.0 3.9999999999999996 25.0
    vertex 0.0 0.0 0.0
    vertex 0.0 0.0 25.0
  endloop
endfacet
facet normal -1.0 0.0 0.0
  outer loop
    vertex 0.0 0.0 0.0
    vertex 0.0 3.9999999999999996 25.0
    vertex 0.0 3.9999999999999996 23.0
  endloop
endfacet
facet normal -1.0 0.0 0.0
  outer loop
    vertex 0.0 0.0 0.0
    vertex 0.0 3.9999999999999996 23.0
    vertex 0.0 27.0 0.0
  endloop
endfacet
facet normal -1.0 0.0 0.0
  outer loop
    vertex 0.0 27.0 0.0
    vertex 0.0 3.9999999999999996 23.0
    vertex 0.0 8.75 23.0
  endloop
endfacet
facet normal -1.0 0.0 0.0
  outer loop
    vertex 0.0 27.0 0.0
    vertex 0.0 8.75 23.0
    vertex 0.0 18.25 23.0
  endloop
endfacet
facet normal -1.0 0.0 0.0
  outer loop
    vertex 0.0 18.25 23.0
    vertex 0.0 8.75 23.0
    vertex 0.0 18.25 25.0
  endloop
endfacet
facet normal -1.0 0.0 0.0
  outer loop
    vertex 0.0 27.0 0.0
    vertex 0.0 18.25 23.0
    vertex 0.0 23.000000000000004 23.0
  endloop
endfacet
facet normal -1.0 0.0 0.0
  outer loop
    vertex 0.0 27.0 0.0
    vertex 0.0 23.000000000000004 23.0
    vertex 0.0 27.0 25.0
  endloop
endfacet
facet normal 1.0 -0.0 -0.0
  outer loop
    vertex 53.00000000000001 27.0 0.0
    vertex 53.00000000000001 0.0 15.0
    vertex 53.00000000000001 0.0 0.0
  endloop
endfacet
facet normal 1.0 -0.0 -0.0
  outer loop
    vertex 53.00000000000001 0.0 15.0
    vertex 53.00000000000001 27.0 0.0
    vertex 53.00000000000001 27.0 15.0
  endloop
endfacet
facet normal 0.0 -1.0 0.0
  outer loop
    vertex 53.00000000000001 0.0 15.0
    vertex 0.0 0.0 0.0
    vertex 53.00000000000001 0.0 0.0
  endloop
endfacet
facet normal 0.0 -1.0 0.0
  outer loop
    vertex 0.0 0.0 0.0
    vertex 53.00000000000001 0.0 15.0
    vertex 1.9999999999999998 0.0 15.0
  endloop
endfacet
facet normal 0.0 -1.0 0.0
  outer loop
    vertex 0.0 0.0 0.0
    vertex 1.9999999999999998 0.0 15.0
    vertex 0.0 0.0 25.0
  endloop
endfacet
facet normal 0.0 -1.0 0.0
  outer loop
    vertex 0.0 0.0 25.0
    vertex 1.9999999999999998 0.0 15.0
    vertex 1.9999999999999998 0.0 25.0
  endloop
endfacet
facet normal 0.0 -0.9999999999999999 0.0
  outer loop
    vertex 1.9999999999999998 23.000000000000004 25.0
    vertex 0.0 23.000000000000004 23.0
    vertex 1.9999999999999998 23.000000000000004 23.0
  endloop
endfacet
facet normal 0.0 -0.9999999999999999 0.0
  outer loop
    vertex 0.0 23.000000000000004 23.0
    vertex 1.9999999999999998 23.000000000000004 25.0
    vertex 0.0 23.000000000000004 25.0
  endloop
endfacet
facet normal -0.0 -0.0 1.0
  outer loop
    vertex 53.00000000000001 0.0 15.0
    vertex 1.9999999999999998 1.9999999999999998 15.0
    vertex 1.9999999999999998 0.0 15.0
  endloop
endfacet
facet normal -0.0 -0.0 1.0
  outer loop
    vertex 1.9999999999999998 1.9999999999999998 15.0
    vertex 53.00000000000001 0.0 15.0
    vertex 51.00000000000001 1.9999999999999991 15.0
  endloop
endfacet
facet normal -0.0 -0.0 1.0
  outer loop
    vertex 51.00000000000001 1.9999999999999991 15.0
    vertex 53.00000000000001 0.0 15.0
    vertex 51.00000000000001 25.000000000000004 15.0
  endloop
endfacet
facet normal -0.0 -0.0 1.0
  outer loop
    vertex 51.00000000000001 25.000000000000004 15.0
    vertex 2.0000000000000018 27.0 15.0
    vertex 2.0000000000000018 25.000000000000004 15.0
  endloop
endfacet
facet normal -0.0 -0.0 1.0
  outer loop
    vertex 2.0000000000000018 27.0 15.0
    vertex 51.00000000000001 25.000000000000004 15.0
    vertex 53.00000000000001 27.0 15.0
  endloop
endfacet
facet normal -0.0 -0.0 1.0
  outer loop
    vertex 53.00000000000001 27.0 15.0
    vertex 51.00000000000001 25.000000000000004 15.0
    vertex 53.00000000000001 0.0 15.0
  endloop
endfacet
facet normal 0.0 0.0 -1.0
  outer loop
    vertex 53.00000000000001 27.0 0.0
    vertex 0.0 0.0 0.0
    vertex 0.0 27.0 0.0
  endloop
endfacet
facet normal 0.0 0.0 -1.0
  outer loop
    vertex 0.0 0.0 0.0
    vertex 53.00000000000001 27.0 0.0
    vertex 53.00000000000001 0.0 0.0
  endloop
endfacet
facet normal -0.0 -0.0 1.0
  outer loop
    vertex 1.9999999999999998 3.9999999999999996 23.0
    vertex 0.0 8.75 23.0
    vertex 0.0 3.9999999999999996 23.0
  endloop
endfacet
facet normal -0.0 -0.0 1.0
  outer loop
    vertex 0.0 8.75 23.0
    vertex 1.9999999999999998 3.9999999999999996 23.0
    vertex 1.9999999999999998 8.75 23.0
  endloop
endfacet
facet normal 1.0 -7.351320340322985e-17 2.650883126378867e-17
  outer loop
    vertex 2.0000000000000018 25.000000000000004 1.9999999999999998
    vertex 1.9999999999999998 1.9999999999999998 15.0
    vertex 1.9999999999999998 1.9999999999999998 1.9999999999999998
  endloop
endfacet
facet normal 1.0 -7.351320340322985e-17 2.650883126378867e-17
  outer loop
    vertex 1.9999999999999998 1.9999999999999998 15.0
    vertex 2.0000000000000018 25.000000000000004 1.9999999999999998
    vertex 1.9999999999999998 3.9999999999999996 23.0
  endloop
endfacet
facet normal 1.0 -7.351320340322985e-17 2.650883126378867e-17
  outer loop
    vertex 1.9999999999999998 3.9999999999999996 23.0
    vertex 2.0000000000000018 25.000000000000004 1.9999999999999998
    vertex 1.9999999999999998 8.75 23.0
  endloop
endfacet
facet normal 1.0 -7.351320340322985e-17 2.650883126378867e-17
  outer loop
    vertex 1.9999999999999998 8.75 23.0
    vertex 2.0000000000000018 25.000000000000004 1.9999999999999998
    vertex 1.9999999999999998 8.75 25.0
  endloop
endfacet
facet normal 1.0 -7.351320340322985e-17 2.650883126378867e-17
  outer loop
    vertex 1.9999999999999998 8.75 25.0
    vertex 2.0000000000000018 25.000000000000004 1.9999999999999998
    vertex 1.9999999999999998 18.25 23.0
  endloop
endfacet
facet normal 1.0 -7.351320340322985e-17 2.650883126378867e-17
  outer loop
    vertex 1.9999999999999998 18.25 23.0
    vertex 2.0000000000000018 25.000000000000004 1.9999999999999998
    vertex 1.9999999999999998 23.000000000000004 23.0
  endloop
endfacet
facet normal 1.0 -7.351320340322985e-17 2.650883126378867e-17
  outer loop
    vertex 1.9999999999999998 23.000000000000004 23.0
    vertex 2.0000000000000018 25.000000000000004 1.9999999999999998
    vertex 1.9999999999999998 23.000000000000004 25.0
  endloop
endfacet
facet normal 1.0 -7.351320340322985e-17 2.650883126378867e-17
  outer loop
    vertex 1.9999999999999998 23.000000000000004 25.0
    vertex 2.0000000000000018 25.000000000000004 1.9999999999999998
    vertex 2.0000000000000018 25.000000000000004 15.0
  endloop
endfacet
facet normal 1.0 -7.351320340322985e-17 2.650883126378867e-17
  outer loop
    vertex 1.9999999999999998 23.000000000000004 25.0
    vertex 2.0000000000000018 25.000000000000004 15.0
    vertex 2.0000000000000018 27.0 25.0
  endloop
endfacet
facet normal 1.0 -7.351320340322985e-17 2.650883126378867e-17
  outer loop
    vertex 2.0000000000000018 27.0 25.0
    vertex 2.0000000000000018 25.000000000000004 15.0
    vertex 2.0000000000000018 27.0 15.0
  endloop
endfacet
facet normal 1.0 -7.351320340322985e-17 2.650883126378867e-17
  outer loop
    vertex 1.9999999999999998 18.25 25.0
    vertex 1.9999999999999998 8.75 25.0
    vertex 1.9999999999999998 18.25 23.0
  endloop
endfacet
facet normal 1.0 -7.351320340322985e-17 2.650883126378867e-17
  outer loop
    vertex 1.9999999999999998 1.9999999999999998 15.0
    vertex 1.9999999999999998 0.0 25.0
    vertex 1.9999999999999998 0.0 15.0
  endloop
endfacet
facet normal 1.0 -7.351320340322985e-17 2.650883126378867e-17
  outer loop
    vertex 1.9999999999999998 0.0 25.0
    vertex 1.9999999999999998 1.9999999999999998 15.0
    vertex 1.9999999999999998 3.9999999999999996 25.0
  endloop
endfacet
facet normal 1.0 -7.351320340322985e-17 2.650883126378867e-17
  outer loop
    vertex 1.9999999999999998 3.9999999999999996 25.0
    vertex 1.9999999999999998 1.9999999999999998 15.0
    vertex 1.9999999999999998 3.9999999999999996 23.0
  endloop
endfacet
facet normal -0.0 -0.0 1.0
  outer loop
    vertex 1.9999999999999998 18.25 23.0
    vertex 0.0 23.000000000000004 23.0
    vertex 0.0 18.25 23.0
  endloop
endfacet
facet normal -0.0 -0.0 1.0
  outer loop
    vertex 0.0 23.000000000000004 23.0
    vertex 1.9999999999999998 18.25 23.0
    vertex 1.9999999999999998 23.000000000000004 23.0
  endloop
endfacet
facet normal 1.4387584094632124e-17 1.0 3.3850030758582577e-49
  outer loop
    vertex 1.9999999999999998 1.9999999999999998 15.0
    vertex 51.00000000000001 1.9999999999999991 1.9999999999999998
    vertex 1.9999999999999998 1.9999999999999998 1.9999999999999998
  endloop
endfacet
facet normal 1.4387584094632124e-17 1.0 3.3850030758582577e-49
  outer loop
    vertex 51.00000000000001 1.9999999999999991 1.9999999999999998
    vertex 1.9999999999999998 1.9999999999999998 15.0
    vertex 51.00000000000001 1.9999999999999991 15.0
  endloop
endfacet
facet normal 0.0 0.9999999999999999 0.0
  outer loop
    vertex 0.0 3.9999999999999996 25.0
    vertex 1.9999999999999998 3.9999999999999996 23.0
    vertex 0.0 3.9999999999999996 23.0
  endloop
endfacet
facet normal 0.0 0.9999999999999999 0.0
  outer loop
    vertex 1.9999999999999998 3.9999999999999996 23.0
    vertex 0.0 3.9999999999999996 25.0
    vertex 1.9999999999999998 3.9999999999999996 25.0
  endloop
endfacet
facet normal -1.0 -0.0 -0.0
  outer loop
    vertex 51.00000000000001 25.000000000000004 15.0
    vertex 51.00000000000001 1.9999999999999991 1.9999999999999998
    vertex 51.00000000000001 1.9999999999999991 15.0
  endloop
endfacet
facet normal -1.0 -0.0 -0.0
  outer loop
    vertex 51.00000000000001 1.9999999999999991 1.9999999999999998
    vertex 51.00000000000001 25.000000000000004 15.0
    vertex 51.00000000000001 25.000000000000004 1.9999999999999998
  endloop
endfacet
facet normal 0.0 -0.9999999999999999 0.0
  outer loop
    vertex 1.9999999999999998 8.75 25.0
    vertex 0.0 8.75 23.0
    vertex 1.9999999999999998 8.75 23.0
  endloop
endfacet
facet normal 0.0 -0.9999999999999999 0.0
  outer loop
    vertex 0.0 8.75 23.0
    vertex 1.9999999999999998 8.75 25.0
    vertex 0.0 8.75 25.0
  endloop
endfacet
facet normal 0.0 0.9999999999999999 0.0
  outer loop
    vertex 0.0 18.25 25.0
    vertex 1.9999999999999998 18.25 23.0
    vertex 0.0 18.25 23.0
  endloop
endfacet
facet normal 0.0 0.9999999999999999 0.0
  outer loop
    vertex 1.9999999999999998 18.25 23.0
    vertex 0.0 18.25 25.0
    vertex 1.9999999999999998 18.25 25.0
  endloop
endfacet
facet normal 0.0 -1.0 0.0
  outer loop
    vertex 51.00000000000001 25.000000000000004 15.0
    vertex 2.0000000000000018 25.000000000000004 1.9999999999999998
    vertex 51.00000000000001 25.000000000000004 1.9999999999999998
  endloop
endfacet
facet normal 0.0 -1.0 0.0
  outer loop
    vertex 2.0000000000000018 25.000000000000004 1.9999999999999998
    vertex 51.00000000000001 25.000000000000004 15.0
    vertex 2.0000000000000018 25.000000000000004 15.0
  endloop
endfacet
facet normal 0.0 0.0 1.0
  outer loop
    vertex 1.9999999999999998 0.0 25.0
    vertex 0.0 3.9999999999999996 25.0
    vertex 0.0 0.0 25.0
  endloop
endfacet
facet normal 0.0 0.0 1.0
  outer loop
    vertex 0.0 3.9999999999999996 25.0
    vertex 1.9999999999999998 0.0 25.0
    vertex 1.9999999999999998 3.9999999999999996 25.0
  endloop
endfacet
facet normal 0.0 0.0 1.0
  outer loop
    vertex 1.9999999999999998 23.000000000000004 25.0
    vertex 0.0 27.0 25.0
    vertex 0.0 23.000000000000004 25.0
  endloop
endfacet
facet normal 0.0 0.0 1.0
  outer loop
    vertex 0.0 27.0 25.0
    vertex 1.9999999999999998 23.000000000000004 25.0
    vertex 2.0000000000000018 27.0 25.0
  endloop
endfacet
facet normal 0.0 0.0 1.0
  outer loop
    vertex 1.9999999999999998 8.75 25.0
    vertex 0.0 18.25 25.0
    vertex 0.0 8.75 25.0
  endloop
endfacet
facet normal 0.0 0.0 1.0
  outer loop
    vertex 0.0 18.25 25.0
    vertex 1.9999999999999998 8.75 25.0
    vertex 1.9999999999999998 18.25 25.0
  endloop
endfacet
endsolid VRegHolder
